<svg width="31" height="31" viewBox="0 0 31 31" fill="none" xmlns="http://www.w3.org/2000/svg">
<path d="M4.72093 14.25H21L19.1395 24H6.11628L4.25581 11H1" stroke="#2B1E18" stroke-width="2" stroke-linecap="round" stroke-linejoin="round"/>
<circle cx="7.5" cy="28.5" r="1.5" stroke="#2B1E18" stroke-width="2" stroke-linecap="round" stroke-linejoin="round"/>
<circle cx="18.5" cy="28.5" r="1.5" stroke="#2B1E18" stroke-width="2" stroke-linecap="round" stroke-linejoin="round"/>
<g clip-path="url(#clip0_1_176)">
<circle cx="21" cy="10" r="10" fill="#42D76A"/>
<path d="M24.2049 12.416V14H17.8569V12.74L21.0969 9.68C21.4409 9.352 21.6729 9.072 21.7929 8.84C21.9129 8.6 21.9729 8.364 21.9729 8.132C21.9729 7.796 21.8569 7.54 21.6249 7.364C21.4009 7.18 21.0689 7.088 20.6289 7.088C20.2609 7.088 19.9289 7.16 19.6329 7.304C19.3369 7.44 19.0889 7.648 18.8889 7.928L17.4729 7.016C17.8009 6.528 18.2529 6.148 18.8289 5.876C19.4049 5.596 20.0649 5.456 20.8089 5.456C21.4329 5.456 21.9769 5.56 22.4409 5.768C22.9129 5.968 23.2769 6.256 23.5329 6.632C23.7969 7 23.9289 7.436 23.9289 7.94C23.9289 8.396 23.8329 8.824 23.6409 9.224C23.4489 9.624 23.0769 10.08 22.5249 10.592L20.5929 12.416H24.2049Z" fill="white"/>
</g>
<defs>
<clipPath id="clip0_1_176">
<rect width="20" height="20" fill="white" transform="translate(11)"/>
</clipPath>
</defs>
</svg>
