<svg width="16" height="23" viewBox="0 0 16 23" fill="none" xmlns="http://www.w3.org/2000/svg">
<path fill-rule="evenodd" clip-rule="evenodd" d="M0 8.81111C0 3.60884 4.06776 0.5 8 0.5C11.9322 0.5 16 3.60884 16 8.81111C16 14.3282 8.64612 22.0316 8.33271 22.3568C8.24471 22.4487 8.12471 22.5 8 22.5C7.87529 22.5 7.75529 22.4487 7.66729 22.3568C7.35388 22.0316 0 14.3282 0 8.81111ZM5.17647 8.81111C5.17647 10.4288 6.44282 11.7444 8 11.7444C9.55718 11.7444 10.8235 10.4288 10.8235 8.81111C10.8235 7.19338 9.55718 5.87778 8 5.87778C6.44282 5.87778 5.17647 7.19338 5.17647 8.81111Z" fill="#2B1E18"/>
</svg>
