<svg width="34" height="34" viewBox="0 0 34 34" fill="none" xmlns="http://www.w3.org/2000/svg">
<path d="M27.5386 11.1209C27.4692 11.5771 27.6222 12.0389 27.9481 12.3647L30.1694 14.5861C30.8352 15.2519 31.1696 16.126 31.1696 17.0001C31.1696 17.8742 30.8366 18.7468 30.1694 19.4141L27.8872 21.6963C27.7338 21.8496 27.5466 21.9647 27.3407 22.0326C27.1348 22.1005 26.9158 22.1193 26.7014 22.0873C26.0356 21.9882 25.5652 21.4073 25.3301 20.7769C25.1237 20.2198 24.7806 19.7236 24.3323 19.3338C23.8841 18.9441 23.345 18.6733 22.7646 18.5463C22.1843 18.4194 21.5814 18.4404 21.0113 18.6075C20.4412 18.7745 19.9223 19.0822 19.5023 19.5023C19.0822 19.9223 18.7745 20.4412 18.6075 21.0113C18.4404 21.5814 18.4194 22.1843 18.5463 22.7646C18.6733 23.345 18.9441 23.8841 19.3338 24.3323C19.7236 24.7806 20.2198 25.1237 20.7769 25.3301C21.4087 25.5652 21.9881 26.0342 22.0873 26.7014C22.1194 26.9159 22.1007 27.1348 22.0328 27.3408C21.9649 27.5467 21.8496 27.7338 21.6963 27.8872L19.4155 30.168C19.0987 30.4858 18.7222 30.7379 18.3077 30.9098C17.8932 31.0817 17.4488 31.17 17.0001 31.1696C16.5516 31.1701 16.1075 31.0821 15.6932 30.9104C15.279 30.7388 14.9027 30.487 14.5861 30.1694L12.3647 27.9481C12.2042 27.7872 12.0081 27.6663 11.7924 27.5949C11.5766 27.5236 11.3471 27.5038 11.1223 27.5372C10.4239 27.6421 9.93232 28.2512 9.67732 28.9086C9.46358 29.4572 9.11644 29.9439 8.6673 30.3246C8.21816 30.7053 7.68119 30.968 7.10497 31.089C6.52875 31.21 5.93146 31.1854 5.36714 31.0174C4.80281 30.8495 4.28925 30.5435 3.87292 30.1272C3.45659 29.7109 3.15062 29.1973 2.98269 28.633C2.81477 28.0687 2.79018 27.4714 2.91116 26.8952C3.03214 26.3189 3.29486 25.782 3.67557 25.3328C4.05628 24.8837 4.54295 24.5366 5.09157 24.3228C5.7489 24.0678 6.35807 23.5762 6.46149 22.8778C6.49508 22.6531 6.47555 22.4237 6.40445 22.2079C6.33334 21.9922 6.21266 21.7961 6.05207 21.6354L3.83074 19.4141C3.51319 19.0974 3.26135 18.7212 3.08971 18.3069C2.91807 17.8926 2.83 17.4485 2.83057 17.0001C2.83057 16.126 3.1649 15.2519 3.83074 14.5861L5.99257 12.4242C6.33257 12.0842 6.81565 11.9242 7.29165 11.995C8.02124 12.1041 8.53407 12.743 8.81173 13.4258C9.03231 13.9666 9.3832 14.4445 9.83317 14.8169C10.2831 15.1892 10.8182 15.4445 11.3907 15.56C11.9633 15.6755 12.5555 15.6476 13.1146 15.4789C13.6738 15.3101 14.1825 15.0056 14.5955 14.5926C15.0085 14.1796 15.3129 13.6709 15.4817 13.1118C15.6505 12.5526 15.6784 11.9604 15.5629 11.3879C15.4474 10.8154 15.1921 10.2803 14.8197 9.83034C14.4473 9.38037 13.9695 9.02947 13.4287 8.8089C12.7458 8.53124 12.1069 8.0184 11.9978 7.28882C11.927 6.81282 12.0857 6.33115 12.4271 5.98974L14.5875 3.82932C14.9041 3.5122 15.2801 3.26072 15.6942 3.08933C16.1082 2.91793 16.552 2.83 17.0001 2.83057C17.8742 2.83057 18.7482 3.1649 19.4141 3.83074L21.6354 6.05207C21.9612 6.3779 22.4231 6.5309 22.8778 6.4629C23.5762 6.35807 24.0678 5.7489 24.3228 5.09157C24.5366 4.54295 24.8837 4.05628 25.3328 3.67557C25.782 3.29486 26.3189 3.03214 26.8952 2.91116C27.4714 2.79018 28.0687 2.81477 28.633 2.98269C29.1973 3.15062 29.7109 3.45659 30.1272 3.87292C30.5435 4.28925 30.8495 4.80281 31.0174 5.36714C31.1854 5.93146 31.21 6.52875 31.089 7.10497C30.968 7.68119 30.7053 8.21816 30.3246 8.6673C29.9439 9.11644 29.4572 9.46358 28.9086 9.67732C28.2512 9.93232 27.6421 10.4225 27.5386 11.1209Z" stroke="#F4C078" stroke-width="5" stroke-linecap="round" stroke-linejoin="round"/>
</svg>
